<?xml version="1.0" encoding="UTF-8" standalone="no"?>
<!-- Created with Inkscape (http://www.inkscape.org/) -->

<svg
   version="1.1"
   id="svg1"
   width="1024"
   height="1024"
   viewBox="0 0 1024 1024"
   sodipodi:docname="reminder2cal.svg"
   xml:space="preserve"
   inkscape:version="1.4-beta2 (9aaf4f34, 2024-07-30)"
   xmlns:inkscape="http://www.inkscape.org/namespaces/inkscape"
   xmlns:sodipodi="http://sodipodi.sourceforge.net/DTD/sodipodi-0.dtd"
   xmlns="http://www.w3.org/2000/svg"
   xmlns:svg="http://www.w3.org/2000/svg"><defs
     id="defs1" /><sodipodi:namedview
     id="namedview1"
     pagecolor="#ffffff"
     bordercolor="#000000"
     borderopacity="0.25"
     inkscape:showpageshadow="2"
     inkscape:pageopacity="0.0"
     inkscape:pagecheckerboard="0"
     inkscape:deskcolor="#d1d1d1"
     showgrid="false"
     inkscape:zoom="1.3824566"
     inkscape:cx="610.14573"
     inkscape:cy="569.99981"
     inkscape:window-width="1472"
     inkscape:window-height="891"
     inkscape:window-x="0"
     inkscape:window-y="37"
     inkscape:window-maximized="1"
     inkscape:current-layer="g1" /><g
     inkscape:groupmode="layer"
     inkscape:label="Image"
     id="g1"><path
       style="fill:#000000"
       d="m 391.81849,712.4399 c -11.26863,-1.90683 -23.30819,-10.75843 -29.8573,-21.95137 -5.95347,-10.17496 -5.73699,-4.83481 -5.73699,-141.52644 0,-85.89701 0.34107,-126.95129 1.08828,-130.99331 1.543,-8.34685 6.22235,-16.95269 12.77234,-23.48971 11.64933,-11.62627 18.97499,-13.99054 43.34947,-13.99054 h 16.78991 v -9.68428 c 0,-7.85742 0.40446,-10.51979 2.14411,-14.11341 5.55756,-11.4804 22.88866,-14.6237 30.8205,-5.58983 7.43803,8.47145 3.40319,19.38889 -7.16495,19.3869 l -3.29966,-6.3e-4 0.34651,5.00063 0.34651,5.00062 h 82.90349 82.90349 v -5.56739 c 0,-5.13293 -0.15783,-5.5173 -2.02248,-4.92548 -3.64582,1.15714 -8.01295,-0.51753 -10.04652,-3.85256 -6.66669,-10.93331 6.27119,-23.36994 20.36408,-19.57511 5.39224,1.45197 12.10116,8.08169 13.58422,13.42384 0.61025,2.19818 1.11205,7.6692 1.11512,12.15781 l 0.006,8.16112 20.25,0.39144 c 22.87902,0.44225 24.15983,0.76935 35.30716,9.01682 6.99581,5.17592 12.78507,13.27542 15.84308,22.16533 l 2.09976,6.10418 v 128 c 0,121.9212 -0.0888,128.32193 -1.86886,134.77886 -2.64216,9.58381 -8.19157,17.67426 -16.11296,23.491 -13.11618,9.6313 3.32859,8.71103 -158.51818,8.87089 -78.375,0.0774 -144.70757,-0.23281 -147.40571,-0.68938 z M 568.2242,692.4786 c 23.144,-1.56465 42.40947,-6.3214 60.43218,-14.92105 12.1593,-5.80189 21.39139,-12.23698 32.36248,-22.5578 19.45524,-18.3021 31.29036,-40.29879 34.15749,-63.48499 1.42254,-11.50388 1.4067,-161.22127 -0.018,-170.00249 -1.23987,-7.6421 -3.56886,-11.77434 -9.10947,-16.16258 -5.80032,-4.59394 -10.96128,-5.50842 -28.5747,-5.0632 l -15.25,0.38547 -0.002,20.65828 c -10e-4,17.67191 -0.25431,21.16137 -1.75,24.13835 -5.40155,10.75113 -20.35769,10.60283 -25.28462,-0.25072 -2.71525,-5.98142 -2.46027,-9.69574 1.01798,-14.82886 2.91989,-4.30912 2.98218,-4.6652 3,-17.15048 l 0.0182,-12.75 h -83 -83 v 13.19528 c 0,12.86625 0.0652,13.26332 2.61427,15.92399 7.89681,8.2425 0.20269,24.22438 -11.58397,24.06171 -5.48108,-0.0756 -9.68244,-2.5788 -12.02049,-7.16175 -1.82457,-3.57645 -2.00981,-5.87876 -2.00981,-24.97939 v -21.03984 h -17.4349 c -9.5892,0 -18.58575,0.43755 -19.99233,0.97233 -4.36237,1.65857 -11.23498,8.82751 -13.7095,14.30062 l -2.36327,5.22705 0.0144,127 0.0144,127 2.7012,5.14882 c 2.98318,5.68631 8.64903,10.93381 13.27005,12.29021 4.14192,1.21578 157.61121,1.26041 175.5,0.051 z M 427.14727,653.56545 c -5.82662,-5.82662 -2.7783,-12.90031 6.75333,-15.67123 l 5.54518,-1.61203 -4.49356,-4.64683 c -13.27366,-13.72641 -20.55018,-28.8816 -22.94724,-47.79343 -1.8409,-14.52395 1.23858,-20.65791 10.30822,-20.53274 8.10381,0.11184 9.71036,2.53727 10.91457,16.47791 1.33005,15.39745 4.20287,22.98936 13.44518,35.53116 l 4.6645,6.32974 2.57974,-2.57974 c 4.33557,-4.33557 10.90439,-3.19277 13.79666,2.40025 2.27078,4.39122 2.10382,21.07168 -0.23965,23.94151 -1.23875,1.51697 -6.27825,3.44484 -17.25,6.59901 -8.525,2.45077 -16.54712,4.46125 -17.82693,4.46772 -1.27981,0.006 -3.64231,-1.30361 -5.25,-2.9113 z m 97.91989,-15.1887 c -8.80854,-1.13633 -22.3011,-6.10296 -30.07317,-11.06998 -22.5465,-14.40915 -36.12394,-40.5693 -34.41999,-66.31824 0.78691,-11.89118 2.73568,-19.11747 8.09034,-30 9.5586,-19.4264 23.28998,-31.33619 44.55986,-38.6486 8.80217,-3.02612 10.45492,-3.26755 22.5,-3.28682 14.01423,-0.0224 19.33605,1.0832 31,6.4403 19.73978,9.06622 36.01491,28.5033 41.62202,49.7084 2.83227,10.71111 2.83076,26.86787 -0.004,37.5872 -7.52683,28.46675 -32.89111,50.66839 -63.1185,55.24832 -10.41069,1.57739 -10.54333,1.57962 -20.15704,0.33942 z m 23.61548,-21.41942 c 9.20831,-2.39845 17.39456,-7.26581 25.12446,-14.93841 8.12943,-8.06917 12.62775,-16.22629 14.90617,-27.03039 1.85365,-8.78987 1.85603,-13.20706 0.0118,-21.91244 -5.23911,-24.73039 -25.26707,-42.77273 -49.209,-44.33027 -17.07323,-1.1107 -29.17111,3.56781 -41.89017,16.19983 -7.20195,7.15267 -8.44867,8.95642 -11.26386,16.29656 -1.74106,4.53953 -3.68447,11.59141 -4.31869,15.67084 -3.95684,25.45139 11.57011,50.916 36.15775,59.29966 7.94864,2.71025 21.64996,3.04496 30.48154,0.74462 z m -29.05841,-29.34007 c -2.14502,-1.57919 -8.06253,-7.14358 -13.15003,-12.36529 -8.24253,-8.45998 -9.25,-9.89152 -9.25,-13.14343 0,-2.74633 0.80422,-4.49894 3.25,-7.08261 3.09287,-3.26725 4.72816,-3.91428 9.23127,-3.65256 1.08971,0.0633 5.19131,3.55141 9.11468,7.75127 l 7.1334,7.63611 15.38532,-15.65185 c 15.20276,-15.46612 15.43693,-15.65166 19.73412,-15.63611 3.51968,0.0127 4.87672,0.58089 7.11786,2.98004 3.64925,3.90654 4.5697,8.56496 2.36105,11.94941 -2.11643,3.24315 -36.81202,37.15403 -39.69871,38.80085 -3.4679,1.97839 -7.08072,1.46817 -11.22896,-1.58583 z m 116.84083,37.87667 c -4.65204,-2.83638 -7.23266,-7.57446 -7.23713,-13.28752 -0.007,-8.81813 4.01185,-14.44384 12.0352,-16.8477 11.05099,-3.31095 21.73344,6.8687 19.53052,18.61127 -0.75331,4.01553 -5.46302,9.89503 -9.66824,12.06963 -3.99602,2.06642 -10.79099,1.8135 -14.66035,-0.54568 z m 8.01687,-62.49056 c -3.19766,-2.30657 -4.09378,-4.38873 -6.26839,-14.56473 -2.55443,-11.95329 -8.4438,-23.24456 -16.13641,-30.93717 l -5.85601,-5.85602 -2.92154,2.92154 c -3.94002,3.94002 -8.22191,3.92885 -12.18253,-0.0318 l -2.95331,-2.9533 0.28023,-12.69093 c 0.27017,-12.23571 0.3699,-12.75613 2.78023,-14.50846 2.88632,-2.09839 32.90544,-7.38553 36.62821,-6.45118 3.73674,0.93786 6.37179,4.50884 6.37179,8.63495 0,5.73141 -2.58808,8.14059 -9.3472,8.70111 l -5.67945,0.47099 7.31472,7.65622 c 11.82189,12.37384 17.87003,22.47253 21.66877,36.18075 2.96882,10.71334 2.7539,17.08621 -0.70684,20.95912 -3.3925,3.79655 -9.53382,4.96356 -12.99227,2.46888 z M 419.7242,531.08805 c -12.82476,-5.65227 -13.76965,-23.34002 -1.57907,-29.55919 9.76858,-4.98356 20.31183,-0.31707 23.15709,10.24944 2.13473,7.92776 -1.54955,15.20252 -9.53665,18.83056 -4.76239,2.16326 -7.93393,2.28947 -12.04137,0.47919 z m 259.41103,160.83426 c 6.49499,-1.92881 13.44425,-8.44934 15.00842,-14.0825 0.58816,-2.1182 1.071,-11.27628 1.07296,-20.35128 l 0.004,-16.5 -4.55545,6.93042 c -12.59953,19.16826 -23.76457,29.70741 -43.99684,41.53047 l -6.91194,4.03911 H 656.809 c 12.56676,0 18.44002,-0.41201 22.32667,-1.56622 z"
       id="path1" /><path
       id="path3"
       style="fill:#d45500;stroke:none"
       d="m 535.6406,489.70773 a 74.143379,74.143379 0 0 0 -74.14258,74.14453 74.143379,74.143379 0 0 0 74.14258,74.14257 74.143379,74.143379 0 0 0 74.14257,-74.14257 74.143379,74.143379 0 0 0 -74.14257,-74.14453 z m 0.30273,18.33984 a 55.103008,55.103008 0 0 1 55.10352,55.10156 55.103008,55.103008 0 0 1 -55.10352,55.10352 55.103008,55.103008 0 0 1 -55.10156,-55.10352 55.103008,55.103008 0 0 1 55.10156,-55.10156 z" /><circle
       style="fill:#d45500;stroke:none;stroke-width:1.09756"
       id="path4"
       cx="425.69147"
       cy="516.11023"
       r="16.275375" /><circle
       style="fill:#d45500;stroke:none;stroke-width:1.09756"
       id="path4-1"
       cx="645.62048"
       cy="611.58752"
       r="16.275375" /></g></svg>
